<?xml version="1.0" encoding="UTF-8" standalone="no"?>
<svg
   width="32"
   height="52"
   viewBox="0 0 32 52"
   fill="none"
   version="1.1"
   id="svg31"
   sodipodi:docname="trezub — копия.svg"
   inkscape:version="1.2.1 (9c6d41e410, 2022-07-14)"
   xmlns:inkscape="http://www.inkscape.org/namespaces/inkscape"
   xmlns:sodipodi="http://sodipodi.sourceforge.net/DTD/sodipodi-0.dtd"
   xmlns="http://www.w3.org/2000/svg"
   xmlns:svg="http://www.w3.org/2000/svg">
  <sodipodi:namedview
     id="namedview33"
     pagecolor="#ffffff"
     bordercolor="#000000"
     borderopacity="0.25"
     inkscape:showpageshadow="2"
     inkscape:pageopacity="0.0"
     inkscape:pagecheckerboard="0"
     inkscape:deskcolor="#d1d1d1"
     showgrid="false"
     inkscape:zoom="14.5"
     inkscape:cx="16"
     inkscape:cy="25.827586"
     inkscape:window-width="1920"
     inkscape:window-height="986"
     inkscape:window-x="-11"
     inkscape:window-y="-11"
     inkscape:window-maximized="1"
     inkscape:current-layer="svg31" />
  <g
     clip-path="url(#clip0_104_328)"
     id="g24">
    <path
       d="M29.046 4.83682C20.8276 12.8113 22.092 25.2159 22.1494 25.7476L22.2644 26.7517L23.2414 26.8699C23.5287 26.9289 25.1954 27.2834 24.9655 29.9415C24.7931 32.2452 22.2644 32.5997 21.2299 32.7178C20.3678 31.5364 17.5517 26.6336 17.2644 12.575C17.2644 11.8661 17.2644 11.1573 17.2644 10.4485C17.2644 10.4485 17.4943 5.42752 17.7241 3.301L16.0575 -0.361328L14.3333 3.18286C14.5632 5.30938 14.7931 10.3303 14.7931 10.3303C14.7931 11.0392 14.7931 11.748 14.7931 12.4568C14.5057 26.5155 11.6897 31.4773 10.8276 32.5997C9.73563 32.5406 7.26437 32.1271 7.09195 29.8234C6.86207 27.1652 8.52874 26.8108 8.81609 26.7517L9.7931 26.6336L9.90805 25.6294C9.96552 25.0978 11.2299 12.6931 3.01149 4.71868L1 2.88751V41.1057H9.33333C10.023 46.7174 15.023 50.9113 15.2529 51.0885L16 51.7383L16.7471 51.0885C16.977 50.9113 22.0345 46.7174 22.6667 41.1057H31V2.88751L29.046 4.83682ZM7.6092 24.6252C6.4023 25.0978 4.96552 26.3382 4.73563 28.701H3.41379V8.97171C7.6092 14.7606 7.66667 22.1443 7.6092 24.6252ZM9.16092 37.4434L9.21839 38.6248H3.41379V31.1229H4.90805C5.54023 33.4857 7.6092 34.4899 9.50575 34.9034C9.16092 36.0848 9.16092 37.2662 9.16092 37.4434ZM11.5747 37.3843C11.5747 36.7345 11.6322 35.7894 11.9195 35.1987C14.046 35.6713 14.6207 37.4434 14.7931 38.6838H11.6322L11.5747 37.3843ZM14.8506 47.1899C13.6437 45.7132 12.2069 43.5866 11.8046 41.1057H14.8506V47.1899ZM16.3448 34.7262C16.2299 34.8443 16.1149 35.0215 16 35.1987C15.8851 35.0215 15.7701 34.9034 15.6552 34.7262C15.023 34.0173 14.2759 33.4266 13.4138 33.0722C14.2184 31.6545 15.1954 29.2917 16 25.3341C16.8046 29.2917 17.7816 31.7136 18.5862 33.0722C17.7241 33.4266 16.977 33.9583 16.3448 34.7262ZM17.2069 47.1308V41.1057H20.2529C19.908 43.5276 18.4713 45.6541 17.2069 47.1308ZM20.4828 37.3843L20.4253 38.6248H17.2644C17.4368 37.3843 18.0115 35.6122 20.1379 35.1397C20.4253 35.7894 20.4828 36.7345 20.4828 37.3843ZM24.4483 24.6252C24.3333 22.2034 24.4483 14.8196 28.6437 8.97171V28.701H27.3218C27.092 26.2792 25.7126 25.0978 24.4483 24.6252ZM22.8391 38.6248L22.8966 37.4434C22.8966 37.2662 22.954 36.0848 22.6092 34.9034C24.4483 34.549 26.5172 33.4857 27.2069 31.1229H28.7011V38.6248H22.8391Z"
       fill="#F2CD13"
       id="path22" />
  </g>
  <defs
     id="defs29">
    <clipPath
       id="clip0_104_328">
      <rect
         width="32"
         height="52"
         fill="white"
         id="rect26" />
    </clipPath>
  </defs>
  <path
     style="fill:#0000ff;stroke-width:0.0689655"
     d="M 15.271046,51.044699 C 12.183668,48.292576 10.154729,45.067519 9.5049414,41.87931 L 9.3468131,41.103448 H 5.1906478 1.0344828 V 22.068966 c 0,-10.468966 0.017739,-19.0344832 0.03942,-19.0344832 0.096902,0 2.3188025,2.0997425 2.8461321,2.6896551 2.0265975,2.2671124 3.5692589,5.0000291 4.5963742,8.1427521 1.2113903,3.706559 1.6886949,7.963023 1.3347427,11.902841 l -0.075348,0.838697 -0.4913503,0.04873 c -0.9625159,0.09545 -1.5204701,0.424667 -1.887817,1.113881 -0.4047954,0.759474 -0.4699355,2.026666 -0.1484132,2.88713 0.3264615,0.873682 1.3024212,1.569087 2.5689488,1.830467 0.9683089,0.199834 1.0273179,0.190786 1.2751899,-0.195531 1.456565,-2.270106 2.658855,-6.732378 3.247149,-12.051724 0.581926,-5.261756 0.617026,-10.030593 0.117766,-15.9999997 L 14.370756,3.2068966 15.146174,1.6034483 C 15.748,0.35896559 15.950486,0 16.050652,0 c 0.101515,0 0.288434,0.3495455 0.875824,1.6378209 l 0.746765,1.6378208 -0.04363,0.5863171 c -0.319566,4.2945419 -0.346834,4.9203571 -0.348585,8.0001102 -0.0018,3.174055 0.0482,4.332443 0.311109,7.206897 0.386785,4.228836 1.09956,7.860577 2.067116,10.532395 0.300911,0.830942 1.217112,2.743442 1.439157,3.004134 0.12782,0.150068 0.155295,0.153926 0.603959,0.08482 2.438637,-0.37561 3.578129,-1.677864 3.276853,-3.744912 -0.195053,-1.338261 -0.81472,-1.979538 -2.074102,-2.146437 l -0.593046,-0.07859 -0.04766,-0.27398 C 22.138846,25.724569 22.053819,23.737079 22.09632,22.517243 22.299708,16.679718 23.908208,11.503443 26.741866,7.5675137 27.408009,6.6422479 28.217003,5.7346659 29.61389,4.3454928 L 30.965517,3.0013285 V 22.05239 41.10345 h -4.15629 -4.15629 l -0.154381,0.802586 c -0.48705,2.532043 -1.903648,5.123758 -4.13141,7.558557 -0.607759,0.664241 -2.25748,2.190581 -2.367656,2.190581 -0.02398,0 -0.351782,-0.274713 -0.728444,-0.610473 z m -0.374494,-6.872285 v -3.068966 h -1.551724 c -1.19566,0 -1.551614,0.01978 -1.551241,0.08621 10e-4,0.181859 0.273731,1.212622 0.451598,1.706897 0.222368,0.617938 0.763739,1.714239 1.155855,2.340662 0.460634,0.735881 1.390465,2.004165 1.469337,2.004165 0.0144,0 0.02618,-1.381034 0.02618,-3.068965 z m 2.75967,2.465517 c 0.932058,-1.166074 1.754237,-2.584627 2.168468,-3.741379 0.177518,-0.495727 0.449678,-1.526478 0.450689,-1.706897 3.44e-4,-0.06643 -0.355581,-0.08621 -1.551241,-0.08621 h -1.551724 v 3.034483 c 0,1.668966 0.01273,3.034483 0.02829,3.034483 0.01556,0 0.220543,-0.240517 0.455513,-0.534483 z M 9.22776,37.534483 c 6.9e-5,-1.065693 0.037997,-1.428159 0.25962,-2.482759 0.040952,-0.194872 0.028779,-0.224138 -0.09323,-0.224138 -0.2591965,0 -1.4238248,-0.418134 -1.9406559,-0.69675 C 6.7561423,33.754903 6.1398844,33.250562 5.7517963,32.738178 5.436055,32.321311 5.0885472,31.653216 4.9963178,31.285744 L 4.9505644,31.103448 H 4.1649374 3.3793103 v 3.793104 3.793103 h 2.9241744 2.9241746 l 6.9e-5,-1.155172 z m 5.599826,1.117063 c 0,-0.02096 -0.04935,-0.261478 -0.109672,-0.534483 -0.166837,-0.755104 -0.57337,-1.543733 -1.03242,-2.002783 -0.392686,-0.392687 -1.141348,-0.818746 -1.595251,-0.907847 -0.216082,-0.04242 -0.222111,-0.03651 -0.330029,0.323457 -0.158504,0.528696 -0.239187,1.532531 -0.193217,2.403939 l 0.03987,0.755826 h 1.610358 c 0.885698,0 1.610358,-0.01715 1.610358,-0.03811 z m 5.62069,-1.306718 c 0,-1.068497 -0.02387,-1.396927 -0.129319,-1.779447 l -0.129318,-0.469102 -0.215509,0.04467 c -0.11853,0.02457 -0.441444,0.151938 -0.717588,0.283038 -0.909351,0.43172 -1.582488,1.320124 -1.879163,2.480112 -0.223425,0.873582 -0.381038,0.790924 1.467449,0.769583 l 1.603448,-0.01851 z m 8.293692,-2.465518 0.01783,-3.775862 h -0.781453 -0.781452 l -0.191015,0.465518 c -0.645347,1.572755 -2.048852,2.70983 -3.93646,3.189193 -0.265767,0.06749 -0.478572,0.142332 -0.472902,0.166309 0.190329,0.80476 0.251749,1.443506 0.24441,2.541788 l -0.0082,1.224876 2.945697,-0.01798 2.945698,-0.01798 z m -12.581505,0.156831 c 0.329041,-0.557022 1.524068,-1.543391 2.224397,-1.836008 0.134957,-0.05639 0.233895,-0.124487 0.219861,-0.151329 C 17.588957,31.105946 16.82038,28.909187 16.261897,26.352501 16.136819,25.779905 16.018966,25.311417 16,25.311417 c -0.01897,0 -0.137246,0.47042 -0.262846,1.045377 -0.539106,2.467869 -1.413095,4.96534 -2.34069,6.688647 -0.01345,0.02499 0.168527,0.143511 0.4044,0.263373 0.235873,0.119863 0.605666,0.35398 0.821762,0.520262 0.405873,0.312312 1.308408,1.244733 1.308408,1.351733 0,0.124541 0.112194,0.0538 0.229429,-0.144668 z M 4.7586207,28.730205 c 0,-0.01563 0.043816,-0.256146 0.097369,-0.534483 0.1071435,-0.55687 0.3270931,-1.189112 0.5461737,-1.569971 0.4441124,-0.772062 1.2932984,-1.573445 1.9596471,-1.849332 l 0.2928449,-0.121247 2.552e-4,-0.897729 C 7.6562172,19.231631 6.680361,14.798077 4.9372021,11.410213 4.4429761,10.449674 3.6716381,9.1912386 3.4792536,9.0315738 3.3920519,8.9592028 3.3793103,10.21139 3.3793103,18.853625 v 9.904996 h 0.6896552 c 0.3793104,0 0.6896552,-0.01279 0.6896552,-0.02842 z M 28.689655,18.862069 c 0,-5.443103 -0.02328,-9.8963276 -0.05172,-9.8960538 -0.09487,9.103e-4 -0.990879,1.4455278 -1.46765,2.3662558 -1.339594,2.586989 -2.154907,5.36335 -2.586318,8.807108 -0.05966,0.476233 -0.123463,1.676894 -0.142852,2.688207 l -0.03504,1.827586 0.498282,0.234258 c 0.59642,0.280395 1.368236,1.006761 1.70698,1.606463 0.263436,0.466377 0.534984,1.236459 0.597042,1.693146 0.0823,0.605635 0.03189,0.569582 0.796272,0.569582 h 0.685007 z"
     id="path208" />
</svg>
